<?xml version="1.0" encoding="UTF-8" standalone="no"?>
<!-- Created with Inkscape (http://www.inkscape.org/) -->

<svg
   width="306.16205"
   height="284.52707"
   viewBox="0 0 81.005375 75.281116"
   version="1.1"
   id="svg1"
   xml:space="preserve"
   xmlns:xlink="http://www.w3.org/1999/xlink"
   xmlns="http://www.w3.org/2000/svg"
   xmlns:svg="http://www.w3.org/2000/svg"><defs
     id="defs1"><linearGradient
       id="linearGradient9"><stop
         style="stop-color:#ee364a;stop-opacity:1;"
         offset="0"
         id="stop8" /><stop
         style="stop-color:#ff5c40;stop-opacity:1;"
         offset="1"
         id="stop9" /></linearGradient><linearGradient
       id="linearGradient91"><stop
         style="stop-color:#520013;stop-opacity:1;"
         offset="0"
         id="stop90" /><stop
         style="stop-color:#1a0400;stop-opacity:1;"
         offset="1"
         id="stop91" /></linearGradient><linearGradient
       id="linearGradient88"><stop
         style="stop-color:#530015;stop-opacity:1;"
         offset="0"
         id="stop87" /><stop
         style="stop-color:#1a0300;stop-opacity:1;"
         offset="1"
         id="stop88" /></linearGradient><linearGradient
       xlink:href="#linearGradient9"
       id="linearGradient76"
       x1="270.97931"
       y1="169.85339"
       x2="270.97931"
       y2="418.4079"
       gradientUnits="userSpaceOnUse" /><linearGradient
       xlink:href="#linearGradient88"
       id="linearGradient87"
       x1="97.201515"
       y1="82.87973"
       x2="97.201515"
       y2="163.95238"
       gradientUnits="userSpaceOnUse" /><linearGradient
       xlink:href="#linearGradient91"
       id="linearGradient94"
       x1="87.071495"
       y1="181.58887"
       x2="87.071495"
       y2="193.00934"
       gradientUnits="userSpaceOnUse" /></defs><g
     id="layer3"
     style="display:inline"
     transform="translate(-0.39826076,-87.324851)"><g
       id="g125"
       transform="translate(286.82012,54.578675)"
       style="display:inline"><g
         id="g72"
         transform="translate(-4.098005)"
         style="display:inline"><g
           id="g26"><path
             id="path3"
             style="display:none;fill:none;stroke:#ffffff;stroke-width:16;stroke-linecap:round;stroke-linejoin:round;stroke-dasharray:none;stroke-opacity:1"
             transform="translate(-335.08341,-29.206227)"
             d="m 75.515442,91.601176 c 0,0 -8.123791,-14.222504 1.333862,-17.447824 9.457653,-3.22532 12.134077,13.039164 12.134077,13.039164 m 8.046036,39.431684 c -16.390832,5.22727 -30.914612,1.59783 -36.080105,-6.41946 -1.982234,-3.07659 4.434653,-5.74552 4.664131,-13.60271 -0.218962,-18.749107 29.440714,-20.161227 29.440714,-20.161227 0,0 3.75615,-20.47597 14.182343,-16.01986 10.42619,4.45611 -2.02059,24.52224 -2.02059,24.52224 0,0 14.32266,-10.19682 18.14607,-0.24746 3.82341,9.949357 -14.33876,13.576957 -14.33876,13.576957" /><path
             id="path125"
             style="display:inline;fill:none;stroke:#ffffff;stroke-width:16;stroke-linecap:round;stroke-linejoin:round;stroke-dasharray:none;stroke-opacity:1"
             transform="translate(-335.08341,-29.206227)"
             d="m 75.515442,91.601176 c 0,0 -8.123791,-14.222504 1.333862,-17.447824 9.457653,-3.22532 12.134077,13.039164 12.134077,13.039164 m 22.039839,21.080164 c 0,0 18.16217,-3.6276 14.33876,-13.576957 -3.82341,-9.94936 -18.14607,0.24746 -18.14607,0.24746 0,0 12.44678,-20.06613 2.02059,-24.52224 -10.426193,-4.45611 -14.182343,16.01986 -14.182343,16.01986 0,0 -29.659676,1.41212 -29.440714,20.161227 -0.229478,7.85719 -6.646365,10.52612 -4.664131,13.60271 5.165493,8.01729 19.689273,11.64673 36.080105,6.41946 7.652583,-2.95845 14.197763,-7.08758 13.993803,-18.35152 z" /></g><g
           id="g57"
           transform="translate(-309.49417,16.315227)"
           style="display:inline"><g
             id="g27"
             style="display:inline"><path
               id="path26"
               style="display:inline;fill:url(#linearGradient76);stroke-width:30.2362;stroke-linecap:round;stroke-linejoin:round"
               transform="scale(0.26458333)"
               d="m 202.99399,119.97416 c -5.89638,0.14191 -12.59532,3.70597 -12.88979,10.28892 -0.94632,8.41982 1.19317,17.13421 4.70753,24.68293 2.89866,1.93577 6.43159,-1.53984 9.5844,-2.08667 5.74538,-2.33847 12.11,-3.17043 17.69598,-5.73409 1.41612,-3.49963 -1.89382,-7.05507 -2.83616,-10.37197 -3.08806,-6.53525 -7.12603,-13.8998 -14.22355,-16.61051 -0.66936,-0.14025 -1.35569,-0.18357 -2.03841,-0.16861 z m 102.15318,-14.93575 c -8.76812,1.13049 -13.49925,10.00614 -17.4422,16.93808 -6.29121,11.54245 -9.46689,24.35419 -12.78034,36.96398 -1.69593,6.58978 -8.61501,9.04494 -14.69591,9.24292 -26.05606,2.796 -52.82267,8.68572 -74.74491,23.73399 -13.07405,8.6801 -21.52745,23.98091 -20.96037,39.7716 -0.11191,16.45856 -8.5646,31.24985 -17.74673,44.34168 -0.73046,3.66716 4.09253,5.45952 6.10893,8.04038 13.01332,10.81169 29.98092,15.90616 46.58266,17.58945 16.64413,0.37537 33.56749,0.97386 49.79768,-3.43564 6.90248,-1.17572 13.45567,-4.00404 20.35627,-4.96461 23.63064,2.84833 47.36774,-19.76423 52.07503,-39.48976 -3.04198,-4.88905 -10.01506,-6.33005 -11.36978,-12.47455 -2.91341,-7.8826 3.35911,-16.80285 11.53839,-17.56806 14.39043,-4.02669 29.82498,-8.55251 40.39446,-19.73607 5.77185,-5.6424 3.5014,-15.80531 -2.73172,-20.06951 -11.1891,-3.12326 -22.57892,2.26846 -32.38961,7.25526 -6.4931,2.89611 -12.14697,8.70648 -19.55582,8.90227 -9.3457,-0.47886 -15.47642,-12.06375 -10.26754,-19.94494 9.76198,-18.59509 20.18917,-38.04925 21.20951,-59.4649 0.53389,-6.91151 -3.77645,-14.00399 -10.83628,-15.37739 -0.83082,-0.19677 -1.68793,-0.29131 -2.54172,-0.25418 z m -93.67869,112.13761 c 10.24496,-0.0793 20.05126,9.09173 19.1019,19.60396 0.98976,10.85735 -9.64614,20.4081 -20.27835,19.52499 -8.18739,0.17213 -15.69255,-6.45192 -17.99213,-14.04142 -0.54605,-6.15455 -1.03643,-13.30818 3.8629,-17.9531 3.80763,-4.30067 9.2809,-7.48563 15.30568,-7.13443 z" /></g><g
             id="g38"
             style="display:inline;opacity:0.5;mix-blend-mode:multiply"><path
               style="fill:none;stroke:#d47bb6;stroke-width:8;stroke-linecap:round;stroke-linejoin:round;stroke-dasharray:none;stroke-dashoffset:0;stroke-opacity:1"
               d="m 38.834671,73.033111 c 7.754128,7.522081 18.69105,12.55261 32.605509,8.069635"
               id="path34" /><path
               style="fill:none;stroke:#d47bb6;stroke-width:8;stroke-linecap:round;stroke-linejoin:round;stroke-dasharray:none;stroke-dashoffset:0;stroke-opacity:1"
               d="M 96.681377,51.203179 C 94.094734,56.054105 90.528024,62.274494 85.43398,62.751226"
               id="path35" /><path
               style="fill:none;stroke:#d47bb6;stroke-width:8;stroke-linecap:round;stroke-linejoin:round;stroke-dasharray:none;stroke-dashoffset:0;stroke-opacity:1"
               d="m 58.761868,38.926889 c -3.836768,1.333112 -6.242746,2.022859 -7.217934,2.069242"
               id="path37" /><path
               style="display:inline;fill:none;stroke:#d57cb6;stroke-width:7.99999;stroke-linecap:round;stroke-linejoin:round;stroke-dasharray:none;stroke-dashoffset:0;stroke-opacity:1"
               d="m 83.64726,24.899489 c 1.712834,12.873673 1.039304,21.047753 -2.02059,24.52224"
               id="path38" /></g><g
             id="g54"
             style="opacity:0.5;mix-blend-mode:lighten"><path
               style="mix-blend-mode:lighten;fill:none;stroke:#ffd69d;stroke-width:7.99999;stroke-linecap:round;stroke-linejoin:round;stroke-dasharray:none;stroke-dashoffset:0;stroke-opacity:1"
               d="m 72.263917,32.048283 c 4.478941,-6.88744 14.23807,-4.253877 14.901019,4.637026"
               id="path39" /><path
               style="fill:none;stroke:#ffd69d;stroke-width:7.99999;stroke-linecap:round;stroke-linejoin:round;stroke-dasharray:none;stroke-dashoffset:0;stroke-opacity:1"
               d="M 81.62667,49.421729 C 88.584451,46.54615 94.63314,46.463662 99.772739,49.174267"
               id="path41" /><path
               style="fill:none;stroke:#ffd69d;stroke-width:7.99999;stroke-linecap:round;stroke-linejoin:round;stroke-dasharray:none;stroke-dashoffset:0;stroke-opacity:1"
               d="M 40.024203,61.080576 C 40.463635,53.015162 52.618676,42.356258 69.464917,40.919349"
               id="path42" /><path
               style="fill:none;stroke:#ffd69d;stroke-width:7.99999;stroke-linecap:round;stroke-linejoin:round;stroke-dasharray:none;stroke-dashoffset:0;stroke-opacity:1"
               d="m 46.705629,34.660547 c 3.356087,-3.742025 6.815319,-5.053981 12.13281,-3.827239"
               id="path43" /><ellipse
               style="display:inline;fill:#ffd69d;fill-opacity:1;stroke-width:8;stroke-linecap:round;stroke-linejoin:round"
               id="ellipse43"
               cx="59.515022"
               cy="46.189167"
               rx="3.2468472"
               ry="3.2465222" /><ellipse
               style="display:inline;fill:#ffd69d;fill-opacity:1;stroke-width:8.00001;stroke-linecap:round;stroke-linejoin:round"
               id="ellipse44"
               cx="62.761868"
               cy="48.370346"
               rx="1.1545531"
               ry="1.1544374" /><ellipse
               style="display:inline;fill:#ffd69d;fill-opacity:1;stroke-width:7.99999;stroke-linecap:round;stroke-linejoin:round"
               id="ellipse45"
               cx="62.788448"
               cy="50.160786"
               rx="0.4300487"
               ry="0.43000561" /><ellipse
               style="display:inline;fill:#ffd69d;fill-opacity:1;stroke-width:8;stroke-linecap:round;stroke-linejoin:round"
               id="ellipse46"
               cx="76.711761"
               cy="33.672832"
               rx="3.2468472"
               ry="3.2465222" /><ellipse
               style="display:inline;fill:#ffd69d;fill-opacity:1;stroke-width:8.00001;stroke-linecap:round;stroke-linejoin:round"
               id="ellipse47"
               cx="75.557205"
               cy="36.919353"
               rx="1.1545531"
               ry="1.1544374" /><ellipse
               style="display:inline;fill:#ffd69d;fill-opacity:1;stroke-width:7.99999;stroke-linecap:round;stroke-linejoin:round"
               id="ellipse48"
               cx="74.374702"
               cy="37.794941"
               rx="0.4300487"
               ry="0.43000561" /><ellipse
               style="display:inline;fill:#ffd69d;fill-opacity:1;stroke-width:8;stroke-linecap:round;stroke-linejoin:round"
               id="ellipse49"
               cx="49.993011"
               cy="35.414021"
               rx="3.2468472"
               ry="3.2465222" /><ellipse
               style="display:inline;fill:#ffd69d;fill-opacity:1;stroke-width:8.00001;stroke-linecap:round;stroke-linejoin:round"
               id="ellipse50"
               cx="51.147564"
               cy="38.660542"
               rx="1.1545531"
               ry="1.1544374" /><ellipse
               style="display:inline;fill:#ffd69d;fill-opacity:1;stroke-width:7.99999;stroke-linecap:round;stroke-linejoin:round"
               id="ellipse51"
               cx="51.619022"
               cy="39.883011"
               rx="0.4300487"
               ry="0.43000561" /><ellipse
               style="display:inline;fill:#ffd69d;fill-opacity:1;stroke-width:8;stroke-linecap:round;stroke-linejoin:round"
               id="ellipse52"
               cx="86.555534"
               cy="53.828915"
               rx="3.2468472"
               ry="3.2465222" /><ellipse
               style="display:inline;fill:#ffd69d;fill-opacity:1;stroke-width:8.00001;stroke-linecap:round;stroke-linejoin:round"
               id="ellipse53"
               cx="83.308685"
               cy="54.983353"
               rx="1.1545531"
               ry="1.1544374" /><ellipse
               style="display:inline;fill:#ffd69d;fill-opacity:1;stroke-width:7.99999;stroke-linecap:round;stroke-linejoin:round"
               id="ellipse54"
               cx="81.724083"
               cy="55.707783"
               rx="0.4300487"
               ry="0.43000561" /></g></g><g
           id="g71"
           transform="translate(-343.05399,-51.082027)"
           style="display:inline"><g
             id="g69"
             style="display:inline"
             transform="translate(-3.163273,-58.709813)"><path
               id="path68"
               style="display:inline;fill:none;stroke:url(#linearGradient87);stroke-width:7.99999;stroke-linecap:round;stroke-linejoin:round"
               transform="translate(11.133853,80.585613)"
               d="m 75.515442,91.601176 c 0,0 -8.123791,-14.222504 1.333862,-17.447824 9.457653,-3.22532 12.134077,13.039164 12.134077,13.039164 m 22.039839,21.080164 c 0,0 18.16217,-3.6276 14.33876,-13.576957 -3.82341,-9.94936 -18.14607,0.24746 -18.14607,0.24746 0,0 12.44678,-20.06613 2.02059,-24.52224 -10.426193,-4.45611 -14.182343,16.01986 -14.182343,16.01986 0,0 -29.659676,1.41212 -29.440714,20.161227 -0.229478,7.85719 -6.646365,10.52612 -4.664131,13.60271 5.165493,8.01729 19.689273,11.64673 36.080105,6.41946 7.652583,-2.95845 14.197763,-7.08758 13.993803,-18.35152 z" /></g><g
             id="g70"
             transform="translate(2.373867,-57.246957)"
             style="display:inline"><circle
               style="fill:url(#linearGradient94);stroke:none;stroke-width:8;stroke-linecap:round;stroke-linejoin:round;stroke-dasharray:none"
               id="circle69"
               cx="87.071495"
               cy="187.2991"
               r="5.7102265" /></g></g></g></g></g></svg>
